<?xml version="1.0" encoding="UTF-8"?> <svg xmlns="http://www.w3.org/2000/svg" fill="none" height="48" viewBox="0 0 150 48" width="150"> <path d="m.5 6c0-3.03757 2.46243-5.5 5.5-5.5h138c3.038 0 5.5 2.46243 5.5 5.5v36c0 3.0376-2.462 5.5-5.5 5.5h-138c-3.03756 0-5.5-2.4624-5.5-5.5z" fill="#000" stroke="#a6a6a6"></path> <g fill="#fff"> <path d="m34.7175 23.6182c.0128-.9815.2783-1.9439.7716-2.7976.4934-.8537 1.1986-1.571 2.05-2.0851-.5409-.7587-1.2545-1.383-2.084-1.8235-.8296-.4405-1.7523-.6849-2.6948-.7138-2.0106-.2073-3.9599 1.1816-4.9845 1.1816-1.0444 0-2.6219-1.1611-4.3206-1.1267-1.0987.0348-2.1696.3486-3.1082.9108-.9385.5622-1.7128 1.3536-2.2474 2.2971-2.3156 3.9376-.5884 9.7246 1.6298 12.9076 1.1098 1.5585 2.4069 3.2995 4.1041 3.2378 1.6608-.0677 2.281-1.0402 4.2858-1.0402 1.9861 0 2.568 1.0402 4.2996 1.0009 1.7821-.0284 2.9049-1.5655 3.9758-3.1388.7974-1.1106 1.411-2.338 1.8181-3.6367-1.0354-.4301-1.9189-1.15-2.5405-2.07-.6215-.92-.9536-1.9993-.9548-3.1034z"></path> <path d="m31.4467 14.1049c.9717-1.1457 1.4504-2.6182 1.3345-4.1049-1.4845.1531-2.8558.85-3.8406 1.9517-.4815.5382-.8503 1.1643-1.0853 1.8426-.2349.6782-.3315 1.3953-.2841 2.1103.7425.0075 1.4771-.1506 2.1484-.4623.6713-.3118 1.2618-.769 1.7271-1.3374z"></path> <path d="m54.6426 31.8173h-5.45l-1.3088 3.7956h-2.3085l5.1622-14.043h2.3984l5.1622 14.043h-2.3478zm-4.8856-1.7515h4.3201l-2.1296-6.1601h-.0597z"></path> <path d="m69.4467 30.4942c0 3.1816-1.7339 5.2258-4.3504 5.2258-.6628.034-1.322-.1159-1.9021-.4327-.58-.3168-1.0576-.7877-1.3778-1.3586h-.0495v5.0712h-2.1398v-13.6255h2.0712v1.7029h.0393c.335-.5682.8206-1.0366 1.4051-1.3553.5845-.3188 1.246-.4759 1.9142-.4547 2.6458 0 4.3898 2.0541 4.3898 5.2269zm-2.1994 0c0-2.0729-1.0907-3.4357-2.7548-3.4357-1.6349 0-2.7346 1.3915-2.7346 3.4357 0 2.0629 1.0997 3.4445 2.7346 3.4445 1.6641 0 2.7548-1.3529 2.7548-3.4445z"></path> <path d="m80.9211 30.4942c0 3.1816-1.7345 5.2258-4.351 5.2258-.6628.034-1.322-.1159-1.9021-.4327-.58-.3168-1.0575-.7877-1.3778-1.3586h-.0495v5.0712h-2.1398v-13.6255h2.0712v1.7029h.0393c.335-.5682.8206-1.0366 1.4051-1.3553.5845-.3188 1.246-.4759 1.9142-.4547 2.6458 0 4.3904 2.0541 4.3904 5.2269zm-2.2 0c0-2.0729-1.0907-3.4357-2.7548-3.4357-1.6349 0-2.7346 1.3915-2.7346 3.4357 0 2.0629 1.0997 3.4445 2.7346 3.4445 1.6641 0 2.7548-1.3529 2.7548-3.4445z"></path> <path d="m88.5028 31.7002c.1585 1.3926 1.536 2.307 3.4182 2.307 1.8036 0 3.1012-.9144 3.1012-2.1701 0-1.09-.7826-1.7426-2.6356-2.1899l-1.8531-.4385c-2.6255-.6228-3.8444-1.8288-3.8444-3.7857 0-2.4229 2.1499-4.0872 5.2016-4.0872 3.0224 0 5.0936 1.6643 5.1633 4.0872h-2.16c-.1293-1.4014-1.3088-2.2473-3.0326-2.2473-1.7237 0-2.9032.8559-2.9032 2.1016 0 .9928.7534 1.577 2.5963 2.0242l1.5753.3799c2.9336.6814 4.1513 1.8388 4.1513 3.8928 0 2.6273-2.1296 4.2728-5.5187 4.2728-3.1708 0-5.3117-1.6069-5.45-4.1469z"></path> <path d="m101.902 22.9514v2.423h1.982v1.6642h-1.982v5.6444c0 .8768.397 1.2854 1.268 1.2854.235-.004.47-.0202.704-.0486v1.6543c-.392.0719-.79.1045-1.189.0972-2.11 0-2.9333-.7786-2.9333-2.7642v-5.8685h-1.5157v-1.6642h1.5157v-2.423z"></path> <path d="m105.031 30.4942c0-3.2214 1.932-5.2457 4.944-5.2457 3.022 0 4.945 2.0243 4.945 5.2457 0 3.2302-1.912 5.2457-4.945 5.2457-3.031 0-4.944-2.0155-4.944-5.2457zm7.709 0c0-2.2098-1.031-3.514-2.765-3.514s-2.765 1.3141-2.765 3.514c0 2.2186 1.031 3.513 2.765 3.513s2.765-1.2944 2.765-3.513z"></path> <path d="m116.684 25.3744h2.041v1.7427h.05c.138-.5443.462-1.0253.919-1.3622.457-.3368 1.017-.509 1.588-.4876.247-.0009.493.0254.733.0784v1.9657c-.311-.0934-.636-.1363-.961-.127-.311-.0123-.621.0415-.909.1578-.287.1164-.546.2925-.758.5163s-.372.4899-.469.7802c-.097.2902-.129.5977-.094.9013v6.0729h-2.14z"></path> <path d="m131.881 32.6057c-.288 1.8586-2.131 3.1342-4.489 3.1342-3.033 0-4.915-1.9956-4.915-5.1971 0-3.2115 1.893-5.2943 4.825-5.2943 2.884 0 4.698 1.9459 4.698 5.0502v.7201h-7.363v.127c-.034.3768.014.7564.141 1.1135.127.3572.33.6838.595.9581s.587.49.943.6328c.357.1428.741.2095 1.126.1956.505.0465 1.013-.0685 1.446-.328.434-.2594.771-.6495.961-1.1121zm-7.234-3.0557h5.212c.019-.3388-.033-.6779-.154-.9959-.12-.318-.306-.6081-.546-.8521s-.529-.4366-.849-.5658c-.319-.1291-.663-.192-1.008-.1848-.348-.002-.694.0638-1.016.1935-.323.1298-.616.321-.863.5626-.246.2415-.442.5287-.575.845-.133.3162-.202.6553-.201.9975z"></path> <path d="m49.4894 10.9998c.4486-.0316.8988.0349 1.318.1949.4193.1599.7971.4092 1.1064.73.3092.3207.5421.7049.6819 1.1247.1398.4199.183.865.1264 1.3032 0 2.1557-1.1862 3.3948-3.2327 3.3948h-2.4816v-6.7476zm-1.4145 5.7934h1.2953c.3206.0188.6414-.0328.9391-.1511.2976-.1183.5647-.3004.7817-.5328.2171-.2325.3786-.5096.4729-.8111.0942-.3015.1188-.6198.072-.9319.0434-.3108.0163-.6271-.0794-.9264s-.2576-.5741-.4741-.8047c-.2166-.2307-.4824-.4114-.7784-.5293-.296-.1178-.6149-.1699-.9338-.1526h-1.2953z"></path> <path d="m53.9272 15.1989c-.0326-.3346.0064-.6722.1144-.9912.1081-.319.2828-.6123.513-.8611.2303-.2487.5109-.4475.8239-.5835s.6515-.2063.9938-.2063c.3422 0 .6807.0703.9938.2063.313.136.5936.3348.8238.5835.2302.2488.4049.5421.513.8611.108.319.147.6566.1144.9912.0332.335-.0053.6731-.113.9926-.1078.3195-.2824.6133-.5127.8626-.2303.2492-.5111.4484-.8244.5847-.3134.1363-.6522.2068-.9949.2068s-.6816-.0705-.9949-.2068c-.3134-.1363-.5942-.3355-.8245-.5847-.2302-.2493-.4049-.5431-.5126-.8626-.1078-.3195-.1463-.6576-.1131-.9926zm3.8377 0c0-1.1038-.5049-1.7493-1.3909-1.7493-.8895 0-1.3898.6455-1.3898 1.7493 0 1.1127.5004 1.7532 1.3898 1.7532.886 0 1.3909-.645 1.3909-1.7532z"></path> <path d="m65.3177 17.7473h-1.0615l-1.0715-3.7504h-.081l-1.0671 3.7504h-1.0513l-1.4291-5.0922h1.0378l.9288 3.8856h.0764l1.066-3.8856h.9816l1.066 3.8856h.0809l.9243-3.8856h1.0232z"></path> <path d="m67.9433 12.6551h.985v.8089h.0765c.1297-.2905.3484-.5341.6258-.6967.2773-.1626.5994-.2362.9214-.2105.2522-.0187.5055.0187.7411.1093s.4474.232.6197.4139c.1724.1819.3009.3996.3759.6368.0751.2373.0949.4881.0578.7339v3.2965h-1.0232v-3.0441c0-.8183-.362-1.2253-1.1188-1.2253-.1713-.0078-.3422.0208-.5012.0839-.159.0632-.3021.1593-.4197.2819s-.2068.2686-.2616.4282c-.0547.1596-.0736.329-.0555.4964v2.979h-1.0232z"></path> <path d="m73.9768 10.6673h1.0232v7.08h-1.0232z"></path> <path d="m76.4225 15.199c-.0326-.3347.0064-.6724.1145-.9913.1081-.319.2828-.6123.5131-.8611.2302-.2488.5108-.4475.8239-.5836.313-.136.6515-.2062.9938-.2062s.6808.0702.9939.2062c.313.1361.5936.3348.8239.5836.2302.2488.405.5421.513.8611.1081.3189.1471.6566.1146.9913.0331.335-.0054.6731-.1132.9926s-.2825.6133-.5128.8625c-.2303.2493-.5111.4484-.8244.5847-.3134.1363-.6523.2068-.995.2068s-.6816-.0705-.9949-.2068c-.3134-.1363-.5942-.3354-.8245-.5847-.2303-.2492-.4049-.543-.5127-.8625s-.1464-.6576-.1132-.9926zm3.8376 0c0-1.1038-.5048-1.7493-1.3909-1.7493-.8894 0-1.3897.6455-1.3897 1.7493 0 1.1126.5003 1.7531 1.3897 1.7531.8861 0 1.3909-.6449 1.3909-1.7531z"></path> <path d="m82.3906 16.3071c0-.9166.6949-1.445 1.9283-1.5201l1.4045-.0795v-.4395c0-.5379-.3621-.8416-1.0615-.8416-.5712 0-.967.206-1.0806.566h-.9906c.1046-.8746.9423-1.4356 2.1184-1.4356 1.2999 0 2.033.6355 2.033 1.7112v3.4792h-.985v-.7156h-.081c-.1643.2567-.395.466-.6686.6064-.2736.1405-.5803.2071-.8887.1931-.2177.0222-.4376-.0006-.6458-.0669-.2081-.0664-.3998-.1749-.5626-.3185s-.2932-.3191-.3827-.5152c-.0896-.1961-.1363-.4084-.1371-.6234zm3.3328-.4351v-.4257l-1.2661.0795c-.7141.0469-1.0379.2855-1.0379.7344 0 .4583.4048.725.9614.725.1631.0162.3279 0 .4845-.0476s.3018-.1256.4271-.2295c.1252-.1038.2279-.2314.302-.375.074-.1437.1179-.3005.129-.4611z"></path> <path d="m88.0867 15.199c0-1.609.8422-2.6283 2.1522-2.6283.324-.0147.6456.0615.9271.2197.2816.1582.5115.3919.6628.6736h.0765v-2.7967h1.0232v7.08h-.9805v-.8045h-.081c-.163.2798-.4009.5106-.6879.6672s-.6121.2331-.9402.2212c-1.319.0001-2.1522-1.0193-2.1522-2.6322zm1.057 0c0 1.0801.5184 1.73 1.3853 1.73.8624 0 1.3954-.6593 1.3954-1.7256 0-1.0612-.5386-1.7299-1.3954-1.7299-.8613 0-1.3853.6543-1.3853 1.7255z"></path> <path d="m97.162 15.1989c-.0326-.3346.0063-.6722.1144-.9912.108-.319.2828-.6123.513-.8611.2302-.2487.5108-.4475.8238-.5835s.6515-.2063.9938-.2063.681.0703.994.2063.593.3348.824.5835c.23.2488.405.5421.513.8611s.147.6566.114.9912c.033.335-.005.6731-.113.9926s-.282.6133-.513.8626c-.23.2492-.511.4484-.824.5847s-.6523.2068-.995.2068-.6816-.0705-.9949-.2068-.5941-.3355-.8244-.5847c-.2303-.2493-.4049-.5431-.5127-.8626-.1077-.3195-.1463-.6576-.113-.9926zm3.838 0c0-1.1038-.505-1.7493-1.3913-1.7493-.8894 0-1.3897.6455-1.3897 1.7493 0 1.1127.5003 1.7532 1.3897 1.7532.8863 0 1.3913-.645 1.3913-1.7532z"></path> <path d="m103.425 12.6551h.985v.8089h.077c.129-.2905.348-.5341.625-.6967.278-.1626.6-.2362.922-.2105.252-.0187.505.0187.741.1093.235.0906.447.232.62.4139.172.1819.3.3996.375.6368.076.2373.095.4881.058.7339v3.2965h-1.023v-3.0441c0-.8183-.362-1.2253-1.119-1.2253-.171-.0078-.342.0208-.501.0839-.159.0632-.302.1593-.42.2819-.117.1226-.206.2686-.261.4282s-.074.329-.056.4964v2.979h-1.023z"></path> <path d="m113.61 11.3873v1.291h1.123v.8465h-1.123v2.6184c0 .5334.224.767.733.767.13-.0004.261-.0082.39-.0232v.8371c-.184.0323-.37.0495-.556.0513-1.138 0-1.591-.3931-1.591-1.3749v-2.8757h-.824v-.8465h.824v-1.291z"></path> <path d="m116.131 10.6673h1.014v2.8062h.081c.136-.2933.361-.5382.644-.7015.283-.1632.61-.2368.937-.2107.251-.0134.502.0277.735.1205s.442.2349.612.4162c.171.1813.299.3974.374.6327.076.2354.098.4843.065.7289v3.2877h-1.025v-3.0397c0-.8134-.385-1.2253-1.108-1.2253-.176-.0142-.353.0096-.519.0696-.165.06-.315.1548-.44.2777-.124.123-.22.2711-.28.4341s-.083.3369-.067.5096v2.974h-1.023z"></path> <path d="m126.559 16.3724c-.139.4654-.441.8679-.851 1.1373-.411.2693-.905.3882-1.396.3359-.341.0088-.681-.0554-.995-.1883-.313-.1329-.594-.3313-.822-.5814s-.398-.5458-.497-.8668c-.1-.321-.128-.6594-.081-.9919-.045-.3334-.017-.6726.082-.9945.1-.322.269-.6191.495-.8714.227-.2522.506-.4537.819-.5908s.652-.2065.995-.2037c1.442 0 2.313.9681 2.313 2.5671v.3507h-3.662v.0563c-.016.1868.008.3749.071.5522.062.1773.161.3398.291.4771.13.1374.288.2465.464.3205.175.0739.364.1111.555.109.245.0288.493-.0144.713-.1244.219-.1099.401-.2815.521-.493zm-3.6-1.6411h2.619c.013-.1709-.011-.3426-.069-.5039-.059-.1614-.151-.309-.272-.4332-.12-.1243-.265-.2224-.426-.2882s-.335-.0978-.509-.0938c-.177-.0022-.353.0304-.517.0959-.164.0656-.312.1627-.438.2856-.125.1229-.223.2692-.29.4303-.067.161-.1.3335-.098.5073z"></path> </g> </svg> 