<?xml version="1.0" encoding="UTF-8"?> <svg xmlns="http://www.w3.org/2000/svg" width="260" height="60" viewBox="0 0 260 60" fill="none"> <path d="M42.594 46.9558C40.4442 51.0147 34.2521 51.0147 32.1023 46.9558L16.7135 17.9012C14.7869 14.2637 17.6177 10 21.9594 10H52.7369C57.0786 10 59.9094 14.2637 57.9828 17.9013L42.594 46.9558Z" fill="#6C91C9"></path> <path d="M16.1023 13.0442C18.2521 8.98527 24.4442 8.98526 26.594 13.0442L41.9827 42.0988C43.9094 45.7363 41.0786 50 36.7369 50H5.95938C1.61769 50 -1.2131 45.7363 0.713527 42.0988L16.1023 13.0442Z" fill="#FD876E"></path> <path d="M48.1023 13.0442C50.2521 8.98527 56.4442 8.98526 58.594 13.0442L73.9827 42.0988C75.9094 45.7363 73.0786 50 68.7369 50H37.9594C33.6177 50 30.7869 45.7363 32.7135 42.0988L48.1023 13.0442Z" fill="#FEE49C"></path> <path d="M101.705 44.28C99.758 44.28 97.998 43.9467 96.4247 43.28C94.878 42.6133 93.6514 41.6533 92.7447 40.4C91.838 39.1467 91.3714 37.6667 91.3447 35.96H97.3447C97.4247 37.1067 97.8247 38.0133 98.5447 38.68C99.2914 39.3467 100.305 39.68 101.585 39.68C102.891 39.68 103.918 39.3733 104.665 38.76C105.411 38.12 105.785 37.2933 105.785 36.28C105.785 35.4533 105.531 34.7733 105.025 34.24C104.518 33.7067 103.878 33.2933 103.105 33C102.358 32.68 101.318 32.3333 99.9847 31.96C98.1714 31.4267 96.6914 30.9067 95.5447 30.4C94.4247 29.8667 93.4514 29.08 92.6247 28.04C91.8247 26.9733 91.4247 25.56 91.4247 23.8C91.4247 22.1467 91.838 20.7067 92.6647 19.48C93.4914 18.2533 94.6514 17.32 96.1447 16.68C97.638 16.0133 99.3447 15.68 101.265 15.68C104.145 15.68 106.478 16.3867 108.265 17.8C110.078 19.1867 111.078 21.1333 111.265 23.64H105.105C105.051 22.68 104.638 21.8933 103.865 21.28C103.118 20.64 102.118 20.32 100.865 20.32C99.7714 20.32 98.8914 20.6 98.2247 21.16C97.5847 21.72 97.2647 22.5333 97.2647 23.6C97.2647 24.3467 97.5047 24.9733 97.9847 25.48C98.4914 25.96 99.1047 26.36 99.8247 26.68C100.571 26.9733 101.611 27.32 102.945 27.72C104.758 28.2533 106.238 28.7867 107.385 29.32C108.531 29.8533 109.518 30.6533 110.345 31.72C111.171 32.7867 111.585 34.1867 111.585 35.92C111.585 37.4133 111.198 38.8 110.425 40.08C109.651 41.36 108.518 42.3867 107.025 43.16C105.531 43.9067 103.758 44.28 101.705 44.28ZM138.56 38.68H127.44L125.6 44H119.72L129.76 16.04H136.28L146.32 44H140.4L138.56 38.68ZM137.04 34.2L133 22.52L128.96 34.2H137.04ZM185.513 16.08V44H179.913V25.84L172.433 44H168.193L160.673 25.84V44H155.073V16.08H161.433L170.313 36.84L179.193 16.08H185.513ZM226.489 16.08V44H220.889V25.84L213.409 44H209.169L201.649 25.84V44H196.049V16.08H202.409L211.289 36.84L220.169 16.08H226.489ZM259.226 16.08L249.786 34.28V44H244.186V34.28L234.706 16.08H241.026L247.026 28.84L252.986 16.08H259.226Z" fill="white"></path> </svg> 